<svg xmlns="http://www.w3.org/2000/svg" width="225" height="225" viewBox="0 0 225 225">
<g>
<path d="M 142.50 218.03 C100.09,219.62 68.06,218.37 59.79,214.81 C57.15,213.68 55.00,212.37 55.00,211.90 C55.00,211.43 56.11,210.32 57.46,209.43 C58.81,208.55 60.19,206.96 60.53,205.91 C60.86,204.86 61.95,204.00 62.94,204.00 C65.05,204.00 67.43,201.51 66.61,200.18 C65.88,199.00 69.28,195.93 71.66,195.59 C72.67,195.45 74.29,193.68 75.26,191.67 C76.35,189.38 77.72,188.00 78.89,188.00 C81.03,188.00 83.44,185.53 82.61,184.18 C81.88,183.00 85.28,179.93 87.66,179.59 C88.67,179.45 90.18,177.98 91.00,176.32 C91.82,174.66 93.79,172.12 95.36,170.68 C98.00,168.27 98.43,168.17 100.86,169.46 C102.31,170.23 105.07,172.25 107.00,173.94 C108.93,175.64 111.18,177.62 112.00,178.35 C115.19,181.16 115.88,180.87 121.53,174.24 C124.69,170.53 133.85,160.33 141.89,151.57 C149.92,142.82 160.44,131.35 165.25,126.10 C170.06,120.84 174.00,116.20 174.00,115.77 C174.00,115.35 172.20,115.00 170.00,115.00 C167.80,115.00 166.00,114.55 166.00,114.00 C166.00,113.45 163.78,113.00 161.06,113.00 C158.34,113.00 155.85,112.57 155.53,112.05 C154.40,110.22 159.12,108.91 169.09,108.30 C181.30,107.56 181.53,107.33 183.46,93.83 C184.20,88.70 185.13,83.60 185.54,82.50 C185.95,81.40 189.52,77.35 193.47,73.50 C197.43,69.65 201.73,64.70 203.02,62.50 C205.60,58.11 210.42,53.00 211.97,53.00 C213.13,53.00 216.00,58.26 216.00,60.40 C216.00,61.23 216.75,62.32 217.66,62.83 C219.20,63.69 219.28,67.65 218.68,112.23 C217.96,166.03 217.53,170.31 211.55,182.50 C205.54,194.73 195.94,204.42 183.41,210.91 C173.45,216.06 167.55,217.09 142.50,218.03 Z" fill="rgb(30,139,55)"/>
<path d="M 178.39 107.00 C176.46,107.82 173.59,108.03 169.09,108.30 C159.12,108.91 154.40,110.22 155.53,112.05 C155.85,112.57 158.34,113.00 161.06,113.00 C163.78,113.00 166.00,113.45 166.00,114.00 C166.00,114.55 167.80,115.00 170.00,115.00 C172.20,115.00 174.00,115.35 174.00,115.77 C174.00,115.35 165.34,115.00 154.75,114.99 C144.16,114.98 133.82,114.70 131.76,114.36 C128.27,113.78 127.87,113.35 125.90,107.94 C124.67,104.58 123.31,102.34 122.64,102.61 C121.41,103.11 111.00,125.94 111.00,128.16 C110.99,131.03 107.03,136.00 104.76,136.00 C102.95,136.00 101.26,133.98 96.49,126.07 C93.20,120.61 89.54,115.69 88.36,115.14 C86.69,114.36 65.50,113.51 58.18,113.92 C55.09,114.10 58.30,118.63 71.12,132.14 C78.62,140.04 88.80,151.23 93.76,157.00 C98.71,162.77 104.84,169.51 107.38,171.96 C109.92,174.41 112.00,176.98 112.00,177.66 C112.00,177.97 112.16,178.35 112.43,178.72 C112.29,178.60 112.15,178.48 112.00,178.35 C111.18,177.62 108.93,175.64 107.00,173.94 C105.07,172.25 102.31,170.23 100.86,169.46 C98.43,168.17 98.00,168.27 95.36,170.68 C93.79,172.12 91.82,174.66 91.00,176.32 C90.18,177.98 88.67,179.45 87.66,179.59 C85.28,179.93 81.88,183.00 82.61,184.18 C83.44,185.53 81.03,188.00 78.89,188.00 C77.72,188.00 76.35,189.38 75.26,191.67 C74.29,193.68 72.67,195.45 71.66,195.59 C69.28,195.93 65.88,199.00 66.61,200.18 C67.43,201.51 65.05,204.00 62.94,204.00 C61.95,204.00 60.86,204.86 60.53,205.91 C60.19,206.96 58.81,208.55 57.46,209.43 C56.11,210.32 55.00,211.43 55.00,211.90 C55.00,212.37 57.15,213.68 59.79,214.81 C64.42,216.81 76.51,218.07 93.69,218.52 C73.59,218.24 56.66,217.38 51.50,216.11 C35.76,212.26 18.66,198.73 11.53,184.50 C7.20,175.85 5.63,165.92 6.79,154.61 C7.49,147.77 8.01,146.91 12.22,145.62 C13.16,145.32 14.60,143.49 15.42,141.54 C16.37,139.26 17.57,138.00 18.78,138.00 C19.85,138.00 21.74,136.38 23.15,134.25 C24.52,132.19 26.20,130.62 26.89,130.77 C27.58,130.92 28.84,129.27 29.69,127.10 C30.72,124.48 32.04,122.96 33.61,122.56 C34.91,122.24 36.76,120.74 37.72,119.23 C40.12,115.49 42.07,114.07 44.87,114.03 C46.65,114.01 47.12,113.55 46.76,112.20 C46.29,110.39 46.74,110.18 52.00,109.72 C53.38,109.60 55.09,108.94 55.82,108.25 C56.78,107.35 62.10,107.00 75.07,107.00 L 92.99 107.00 L 98.24 114.98 C101.14,119.36 103.93,122.82 104.45,122.66 C104.97,122.50 106.66,119.25 108.21,115.43 C111.06,108.41 118.65,90.70 119.93,88.07 C120.32,87.28 121.39,86.16 122.32,85.57 C125.00,83.88 127.36,86.14 128.64,91.61 C130.29,98.63 132.86,105.29 134.28,106.19 C134.95,106.62 145.54,106.98 157.80,106.98 ZM 218.35 63.80 C218.17,63.24 217.94,62.99 217.66,62.83 C216.75,62.32 216.00,61.23 216.00,60.40 C216.00,58.26 213.13,53.00 211.97,53.00 C210.42,53.00 205.60,58.11 203.02,62.50 C201.73,64.70 197.43,69.65 193.47,73.50 C189.52,77.35 185.95,81.40 185.54,82.50 C185.13,83.60 184.20,88.70 183.46,93.83 C183.15,96.03 182.88,97.88 182.59,99.43 C183.66,92.46 182.97,81.36 180.76,75.00 C177.85,66.64 168.23,56.40 159.39,52.26 C154.00,49.74 152.52,49.50 142.00,49.55 C127.92,49.61 126.57,49.81 121.31,52.70 C116.15,55.53 114.01,55.59 111.19,52.96 C108.67,50.62 108.63,50.36 110.07,46.24 C110.75,44.28 112.03,42.96 113.63,42.56 C115.01,42.21 116.89,40.61 117.81,39.00 C118.74,37.39 120.42,35.58 121.56,34.97 C122.69,34.36 124.43,32.36 125.42,30.51 C126.43,28.64 128.30,26.89 129.67,26.55 C131.01,26.21 133.01,24.39 134.13,22.51 C135.24,20.63 137.03,18.81 138.11,18.46 C139.23,18.11 140.33,16.62 140.64,15.03 C141.67,9.91 147.02,7.25 160.13,5.34 C165.04,4.63 180.01,8.44 187.50,12.31 C201.79,19.70 214.49,37.69 217.64,55.00 C217.93,56.61 218.17,59.68 218.35,63.80 ZM 218.13 143.49 C218.35,135.44 218.51,125.30 218.68,112.23 C218.75,107.41 218.80,103.07 218.85,99.15 C218.81,114.21 218.56,130.43 218.13,143.49 ZM 215.99 170.40 C216.60,167.50 217.05,164.07 217.39,159.53 C217.13,163.55 216.83,166.53 216.51,168.08 C216.35,168.86 216.18,169.63 215.99,170.40 ZM 209.18 186.89 C210.02,185.46 210.81,184.00 211.55,182.50 C211.82,181.94 212.08,181.40 212.33,180.88 C211.39,182.94 210.34,184.94 209.18,186.89 Z" fill="rgb(73,188,79)"/>
<path d="M 184.50 10.78 C185.03,11.05 185.55,11.33 186.07,11.61 C178.25,8.00 164.75,4.67 160.13,5.34 C147.02,7.25 141.67,9.91 140.64,15.03 C140.33,16.62 139.23,18.11 138.11,18.46 C137.03,18.81 135.24,20.63 134.13,22.51 C133.01,24.39 131.01,26.21 129.67,26.55 C128.30,26.89 126.43,28.64 125.42,30.51 C124.43,32.36 122.69,34.36 121.56,34.97 C120.42,35.58 118.74,37.39 117.81,39.00 C116.89,40.61 115.01,42.21 113.63,42.56 C112.03,42.96 110.75,44.28 110.07,46.24 C108.63,50.36 108.67,50.62 111.19,52.96 C114.01,55.59 116.15,55.53 121.31,52.70 C126.57,49.81 127.92,49.61 142.00,49.55 C152.52,49.50 154.00,49.74 159.39,52.26 C165.88,55.30 172.80,61.63 177.16,68.09 C175.88,66.43 174.16,64.68 171.64,62.30 C167.82,58.70 162.18,54.57 159.10,53.13 C154.03,50.75 152.37,50.50 141.50,50.50 C129.59,50.50 129.44,50.53 122.14,54.26 L 114.78 58.03 L 111.64 56.09 C109.91,55.03 106.03,53.19 103.01,52.00 C95.58,49.08 80.95,49.04 73.17,51.92 C56.72,58.00 45.64,75.80 47.33,93.45 C48.20,102.66 49.56,105.66 53.18,106.39 C54.87,106.72 64.52,107.00 74.62,107.00 L 75.07 107.00 C62.10,107.00 56.78,107.35 55.82,108.25 C55.09,108.94 53.38,109.60 52.00,109.72 C46.74,110.18 46.29,110.39 46.76,112.20 C47.12,113.55 46.65,114.01 44.87,114.03 C42.07,114.07 40.12,115.49 37.72,119.23 C36.76,120.74 34.91,122.24 33.61,122.56 C32.04,122.96 30.72,124.48 29.69,127.10 C28.84,129.27 27.58,130.92 26.89,130.77 C26.20,130.62 24.52,132.19 23.15,134.25 C21.74,136.38 19.85,138.00 18.78,138.00 C17.57,138.00 16.37,139.26 15.42,141.54 C14.60,143.49 13.16,145.32 12.22,145.62 C8.01,146.91 7.49,147.77 6.79,154.61 C5.63,165.92 7.20,175.85 11.53,184.50 C13.31,188.04 15.69,191.53 18.53,194.85 C11.53,187.24 7.92,180.72 5.22,171.51 C3.26,164.79 2.20,72.91 3.92,58.31 C6.83,33.67 22.36,14.41 46.33,5.73 C52.39,3.54 53.50,3.49 106.50,3.21 C168.26,2.88 169.11,2.96 184.50,10.78 ZM 202.62 24.65 C210.28,33.13 215.57,43.62 217.64,55.00 C215.68,44.24 210.04,33.23 202.62,24.65 ZM 28.87 204.65 C35.86,210.07 43.84,214.24 51.50,216.11 C43.78,214.22 35.83,210.17 28.87,204.65 ZM 180.21 73.59 C180.42,74.07 180.60,74.54 180.76,75.00 C181.14,76.09 181.47,77.32 181.76,78.64 C181.48,77.37 181.16,76.20 180.80,75.17 C180.60,74.61 180.41,74.09 180.21,73.59 ZM 182.98 88.14 C183.20,92.20 183.08,96.25 182.59,99.43 C182.59,99.47 182.58,99.51 182.57,99.54 C183.08,96.34 183.20,92.24 182.98,88.14 Z" fill="rgb(111,227,102)"/>
<path d="M 0.00 112.50 L 0.00 0.00 L 112.50 0.00 L 225.00 0.00 L 225.00 112.50 L 225.00 225.00 L 112.50 225.00 L 0.00 225.00 L 0.00 112.50 ZM 142.50 218.03 C167.55,217.09 173.45,216.06 183.41,210.91 C200.64,201.99 212.75,186.32 216.51,168.08 C218.89,156.54 219.79,66.81 217.64,55.00 C214.20,36.08 201.85,19.61 184.50,10.78 C169.11,2.96 168.26,2.88 106.50,3.21 C53.50,3.49 52.39,3.54 46.33,5.73 C22.36,14.41 6.83,33.67 3.92,58.31 C2.20,72.91 3.26,164.79 5.22,171.51 C8.59,182.99 13.38,190.30 24.37,200.75 C32.28,208.26 42.06,213.80 51.50,216.11 C60.70,218.37 107.27,219.35 142.50,218.03 ZM 113.75 179.92 C112.79,179.36 112.00,178.34 112.00,177.66 C112.00,176.98 109.92,174.41 107.38,171.96 C104.84,169.51 98.71,162.77 93.76,157.00 C88.80,151.23 78.62,140.04 71.12,132.14 C58.30,118.63 55.09,114.10 58.18,113.92 C65.50,113.51 86.69,114.36 88.36,115.14 C89.54,115.69 93.20,120.61 96.49,126.07 C101.26,133.98 102.95,136.00 104.76,136.00 C107.03,136.00 110.99,131.03 111.00,128.16 C111.00,125.94 121.41,103.11 122.64,102.61 C123.31,102.34 124.67,104.58 125.90,107.94 C127.87,113.35 128.27,113.78 131.76,114.36 C133.82,114.70 144.16,114.98 154.75,114.99 C165.34,115.00 174.00,115.35 174.00,115.77 C174.00,116.20 170.06,120.84 165.25,126.10 C160.44,131.35 149.92,142.82 141.89,151.57 C133.85,160.33 124.68,170.54 121.52,174.25 C118.35,177.96 115.71,180.99 115.63,180.97 C115.56,180.95 114.71,180.48 113.75,179.92 ZM 98.24 114.98 L 92.99 107.00 L 74.62 107.00 C64.52,107.00 54.87,106.72 53.18,106.39 C49.56,105.66 48.20,102.66 47.33,93.45 C45.64,75.80 56.72,58.00 73.17,51.92 C80.95,49.04 95.58,49.08 103.01,52.00 C106.03,53.19 109.91,55.03 111.64,56.09 L 114.78 58.03 L 122.14 54.26 C129.44,50.53 129.59,50.50 141.50,50.50 C152.37,50.50 154.03,50.75 159.10,53.13 C162.18,54.57 167.82,58.70 171.64,62.30 C177.42,67.75 178.94,69.90 180.80,75.17 C183.49,82.84 183.89,97.93 181.55,103.53 L 180.10 107.00 L 157.80 106.98 C145.54,106.98 134.95,106.62 134.28,106.19 C132.86,105.29 130.29,98.63 128.64,91.61 C127.36,86.14 125.00,83.88 122.32,85.57 C121.39,86.16 120.32,87.28 119.93,88.07 C118.65,90.70 111.06,108.41 108.21,115.43 C106.66,119.25 104.97,122.50 104.45,122.66 C103.93,122.82 101.14,119.36 98.24,114.98 Z" fill="rgb(250,253,250)"/>
</g>
</svg>